<svg xmlns="http://www.w3.org/2000/svg" viewBox="0 0 2200 2100">
    <rect width="2200" height="2100" fill="white"/>
    <path fill-rule="nonzero" fill="rgb(0%, 0%, 0%)" d="M 990.40625 1717.761719 L 990.40625 1610.792969 L 922.164062 1679.027344 L 853.921875 1747.257812 L 811.917969 1705.238281 L 769.910156 1663.21875 L 880.15625 1552.976562 L 990.40625 1442.734375 L 990.40625 1299.40625 C 990.40625 1220.574219 990.089844 1156.078125 989.707031 1156.078125 C 988.503906 1156.078125 742.492188 1303.960938 742.492188 1304.683594 C 742.492188 1306 667.019531 1603.636719 666.542969 1604.203125 C 665.929688 1604.933594 553.9375 1576.742188 552.515625 1575.5 C 551.589844 1574.691406 562.230469 1531.296875 590.988281 1418.609375 C 596.832031 1395.714844 597.699219 1391.105469 595.988281 1392.019531 C 594.847656 1392.628906 554.0625 1417.046875 505.351562 1446.277344 C 456.640625 1475.507812 416.515625 1499.152344 416.1875 1498.824219 C 415.140625 1497.777344 355.195312 1397.566406 355.464844 1397.3125 C 355.605469 1397.175781 397.019531 1372.292969 447.5 1342.015625 C 497.976562 1311.734375 539.382812 1286.855469 539.519531 1286.726562 C 539.65625 1286.601562 497.550781 1275.839844 445.957031 1262.816406 C 394.359375 1249.796875 351.761719 1238.8125 351.292969 1238.414062 C 350.824219 1238.011719 356.941406 1212.082031 364.890625 1180.792969 C 375.371094 1139.523438 379.796875 1123.898438 381.015625 1123.898438 C 381.9375 1123.898438 450.464844 1141.058594 533.292969 1162.039062 L 683.894531 1200.175781 L 808.546875 1125.386719 C 877.101562 1084.25 933.195312 1050.328125 933.195312 1050 C 933.195312 1049.671875 877.101562 1015.75 808.546875 974.609375 L 683.894531 899.820312 L 533.292969 937.960938 C 450.464844 958.941406 381.9375 976.101562 381.015625 976.101562 C 379.796875 976.101562 375.371094 960.480469 364.890625 919.210938 C 356.941406 887.921875 350.824219 861.988281 351.292969 861.589844 C 351.761719 861.191406 394.359375 850.199219 445.957031 837.179688 C 497.550781 824.160156 539.65625 813.398438 539.519531 813.269531 C 539.382812 813.140625 497.976562 788.269531 447.5 757.980469 C 397.019531 727.710938 355.605469 702.820312 355.464844 702.691406 C 355.195312 702.429688 415.140625 602.21875 416.1875 601.179688 C 416.519531 600.851562 456.640625 624.488281 505.351562 653.71875 C 554.0625 682.949219 594.847656 707.371094 595.988281 707.980469 C 597.699219 708.890625 596.832031 704.28125 590.988281 681.390625 C 562.230469 568.699219 551.589844 525.308594 552.515625 524.5 C 553.9375 523.261719 665.929688 495.070312 666.542969 495.789062 C 667.019531 496.359375 742.492188 794 742.492188 795.320312 C 742.492188 796.039062 988.503906 943.921875 989.707031 943.921875 C 990.089844 943.921875 990.40625 879.429688 990.40625 800.589844 L 990.40625 657.269531 L 880.15625 547.019531 L 769.910156 436.78125 L 811.917969 394.761719 L 853.921875 352.738281 L 990.40625 489.210938 L 990.40625 275.269531 L 1109.589844 275.269531 L 1109.589844 489.210938 L 1246.078125 352.738281 L 1288.078125 394.761719 L 1330.089844 436.78125 L 1219.839844 547.019531 L 1109.589844 657.269531 L 1109.589844 800.589844 C 1109.589844 879.429688 1109.910156 943.921875 1110.289062 943.921875 C 1111.5 943.921875 1357.511719 796.039062 1357.511719 795.320312 C 1357.511719 794 1432.980469 496.359375 1433.460938 495.789062 C 1434.070312 495.070312 1546.058594 523.261719 1547.480469 524.5 C 1548.410156 525.308594 1537.769531 568.699219 1509.011719 681.390625 C 1503.171875 704.28125 1502.300781 708.890625 1504.011719 707.980469 C 1505.148438 707.371094 1545.941406 682.949219 1594.648438 653.71875 C 1643.359375 624.488281 1683.480469 600.851562 1683.808594 601.179688 C 1684.859375 602.21875 1744.808594 702.429688 1744.539062 702.691406 C 1744.390625 702.820312 1702.980469 727.710938 1652.5 757.980469 C 1602.019531 788.269531 1560.621094 813.140625 1560.480469 813.269531 C 1560.339844 813.398438 1602.449219 824.160156 1654.039062 837.179688 C 1705.640625 850.199219 1748.238281 861.191406 1748.710938 861.589844 C 1749.179688 861.988281 1743.058594 887.921875 1735.109375 919.210938 C 1724.628906 960.480469 1720.199219 976.101562 1718.980469 976.101562 C 1718.058594 976.101562 1649.539062 958.941406 1566.710938 937.960938 L 1416.109375 899.820312 L 1291.449219 974.609375 C 1222.898438 1015.75 1166.808594 1049.671875 1166.808594 1050 C 1166.808594 1050.328125 1222.898438 1084.25 1291.449219 1125.386719 L 1416.109375 1200.175781 L 1566.710938 1162.039062 C 1649.539062 1141.058594 1718.058594 1123.898438 1718.980469 1123.898438 C 1720.199219 1123.898438 1724.628906 1139.523438 1735.109375 1180.792969 C 1743.058594 1212.082031 1749.179688 1238.011719 1748.710938 1238.414062 C 1748.238281 1238.8125 1705.640625 1249.796875 1654.039062 1262.816406 C 1602.449219 1275.839844 1560.339844 1286.601562 1560.480469 1286.726562 C 1560.621094 1286.855469 1602.019531 1311.734375 1652.5 1342.015625 C 1702.980469 1372.292969 1744.390625 1397.175781 1744.539062 1397.3125 C 1744.808594 1397.566406 1684.859375 1497.777344 1683.808594 1498.824219 C 1683.480469 1499.152344 1643.359375 1475.507812 1594.648438 1446.277344 C 1545.941406 1417.046875 1505.148438 1392.628906 1504.011719 1392.019531 C 1502.300781 1391.105469 1503.171875 1395.714844 1509.011719 1418.609375 C 1537.769531 1531.296875 1548.410156 1574.691406 1547.480469 1575.5 C 1546.058594 1576.742188 1434.070312 1604.933594 1433.460938 1604.203125 C 1432.980469 1603.636719 1357.511719 1306 1357.511719 1304.683594 C 1357.511719 1303.960938 1111.5 1156.078125 1110.289062 1156.078125 C 1109.910156 1156.078125 1109.589844 1220.574219 1109.589844 1299.40625 L 1109.589844 1442.734375 L 1330.089844 1663.21875 L 1288.078125 1705.238281 L 1246.078125 1747.257812 L 1177.839844 1679.027344 L 1109.589844 1610.792969 L 1109.589844 1824.730469 L 990.40625 1824.730469 Z M 990.40625 1717.761719 "/>
</svg>

